<svg width="41" height="40" viewBox="0 0 41 40" fill="none" xmlns="http://www.w3.org/2000/svg">
<rect x="1.31386" y="0.713759" width="38.5725" height="38.5725" rx="19.2862" fill="white" stroke="#EDEDED" stroke-width="1.42752"/>
<path d="M24.2095 17.1328C24.2095 17.8464 23.9933 18.4531 23.561 18.9531C23.1287 19.4531 22.522 19.7969 21.7407 19.9844V20.0312C22.6626 20.1458 23.3605 20.4271 23.8345 20.875C24.3084 21.3177 24.5454 21.9167 24.5454 22.6719C24.5454 23.7708 24.147 24.6276 23.3501 25.2422C22.5532 25.8516 21.4152 26.1562 19.936 26.1562C18.6965 26.1562 17.5975 25.9505 16.6392 25.5391V23.4844C17.0819 23.7083 17.5688 23.8906 18.1001 24.0312C18.6313 24.1719 19.1574 24.2422 19.6782 24.2422C20.4751 24.2422 21.0636 24.1068 21.4438 23.8359C21.8241 23.5651 22.0142 23.1302 22.0142 22.5312C22.0142 21.9948 21.7954 21.6146 21.3579 21.3906C20.9204 21.1667 20.2225 21.0547 19.2642 21.0547H18.397V19.2031H19.2798C20.1652 19.2031 20.811 19.0885 21.2173 18.8594C21.6287 18.625 21.8345 18.2266 21.8345 17.6641C21.8345 16.7995 21.2928 16.3672 20.2095 16.3672C19.8345 16.3672 19.4517 16.4297 19.061 16.5547C18.6756 16.6797 18.2459 16.8958 17.772 17.2031L16.6548 15.5391C17.6965 14.7891 18.9386 14.4141 20.3813 14.4141C21.5636 14.4141 22.4959 14.6536 23.1782 15.1328C23.8657 15.612 24.2095 16.2786 24.2095 17.1328Z" fill="black"/>
</svg>
