<svg width="41" height="40" viewBox="0 0 41 40" fill="none" xmlns="http://www.w3.org/2000/svg">
<rect x="0.800293" width="40" height="40" rx="20" fill="white"/>
<path d="M24.855 26H16.8706V24.3203L19.7378 21.4219C20.5868 20.5521 21.1414 19.9505 21.4019 19.6172C21.6623 19.2786 21.8498 18.9661 21.9644 18.6797C22.0789 18.3932 22.1362 18.0964 22.1362 17.7891C22.1362 17.3307 22.0086 16.9896 21.7534 16.7656C21.5034 16.5417 21.1675 16.4297 20.7456 16.4297C20.3029 16.4297 19.8732 16.5312 19.4565 16.7344C19.0399 16.9375 18.605 17.2266 18.1519 17.6016L16.8394 16.0469C17.4019 15.5677 17.868 15.2292 18.2378 15.0312C18.6076 14.8333 19.0112 14.6823 19.4487 14.5781C19.8862 14.4688 20.3758 14.4141 20.9175 14.4141C21.631 14.4141 22.2612 14.5443 22.8081 14.8047C23.355 15.0651 23.7795 15.4297 24.0815 15.8984C24.3836 16.3672 24.5347 16.9036 24.5347 17.5078C24.5347 18.0339 24.4409 18.5286 24.2534 18.9922C24.0711 19.4505 23.7847 19.9219 23.394 20.4062C23.0086 20.8906 22.3263 21.5807 21.3472 22.4766L19.8784 23.8594V23.9688H24.855V26Z" fill="black"/>
</svg>
